<?xml version="1.0" encoding="utf-8"?>
<!-- Generator: Adobe Illustrator 16.0.0, SVG Export Plug-In . SVG Version: 6.00 Build 0)  -->
<!DOCTYPE svg PUBLIC "-//W3C//DTD SVG 1.1//EN" "http://www.w3.org/Graphics/SVG/1.1/DTD/svg11.dtd">
<svg version="1.1" id="Calque_1" xmlns="http://www.w3.org/2000/svg" xmlns:xlink="http://www.w3.org/1999/xlink" x="0px" y="0px"
	 width="227.029px" height="200.004px" viewBox="0 0 227.029 200.004" enable-background="new 0 0 227.029 200.004"
	 xml:space="preserve">
<g>
	<path fill="#FFFFFF" d="M37.458,63.01c0-3.071,0.576-6.131,1.728-9.18c1.152-3.048,2.832-5.771,5.04-8.172
		c2.208-2.399,4.896-4.343,8.064-5.832c3.168-1.487,6.768-2.232,10.8-2.232c4.799,0,8.964,1.033,12.492,3.096
		c3.528,2.064,6.156,4.752,7.884,8.064l-9.072,6.336c-0.576-1.343-1.308-2.459-2.196-3.348c-0.889-0.888-1.861-1.608-2.916-2.16
		c-1.057-0.551-2.136-0.936-3.24-1.152c-1.104-0.216-2.185-0.324-3.24-0.324c-2.257,0-4.225,0.457-5.904,1.368
		c-1.681,0.912-3.072,2.088-4.176,3.528c-1.105,1.44-1.92,3.072-2.448,4.896c-0.528,1.825-0.792,3.672-0.792,5.544
		c0,2.016,0.312,3.96,0.936,5.832c0.624,1.872,1.523,3.528,2.7,4.968c1.176,1.44,2.592,2.581,4.248,3.42
		c1.656,0.84,3.516,1.26,5.58,1.26c1.055,0,2.147-0.131,3.276-0.396c1.127-0.263,2.207-0.671,3.24-1.224
		c1.031-0.551,1.98-1.271,2.844-2.16c0.864-0.888,1.559-1.98,2.088-3.276l9.648,5.688c-0.768,1.872-1.908,3.553-3.42,5.04
		c-1.512,1.489-3.252,2.736-5.22,3.744c-1.969,1.008-4.057,1.776-6.264,2.304c-2.208,0.527-4.368,0.792-6.48,0.792
		c-3.697,0-7.092-0.756-10.188-2.268c-3.096-1.512-5.76-3.516-7.992-6.012c-2.232-2.495-3.96-5.328-5.184-8.496
		C38.07,69.49,37.458,66.275,37.458,63.01z"/>
	<path fill="#FFFFFF" d="M95.633,89.002v-51.12h11.808v40.752h24.768v10.368H95.633z"/>
	<path fill="#FFFFFF" d="M157.337,37.882h10.656l18.648,51.12h-12.096l-3.96-11.448h-15.912l-3.888,11.448h-12.096L157.337,37.882z
		 M168.641,69.418l-5.976-18.072l-6.12,18.072H168.641z"/>
	<path fill="#FFFFFF" d="M71.082,123.858c-0.144-0.191-0.648-0.551-1.512-1.08c-0.864-0.527-1.944-1.08-3.24-1.656
		c-1.296-0.576-2.712-1.08-4.248-1.512c-1.537-0.432-3.072-0.648-4.608-0.648c-4.224,0-6.336,1.417-6.336,4.248
		c0,0.864,0.227,1.584,0.684,2.16c0.456,0.576,1.127,1.092,2.016,1.548c0.887,0.457,2.003,0.876,3.348,1.26
		c1.343,0.385,2.904,0.817,4.68,1.296c2.448,0.672,4.655,1.404,6.624,2.196c1.968,0.792,3.636,1.776,5.004,2.952
		c1.368,1.177,2.423,2.604,3.168,4.284c0.744,1.681,1.116,3.697,1.116,6.048c0,2.88-0.54,5.316-1.62,7.308
		c-1.08,1.993-2.509,3.6-4.284,4.824c-1.776,1.224-3.816,2.113-6.12,2.664c-2.304,0.551-4.68,0.828-7.128,0.828
		c-1.872,0-3.792-0.144-5.76-0.432c-1.969-0.288-3.888-0.708-5.76-1.26c-1.872-0.551-3.684-1.211-5.436-1.98
		c-1.752-0.767-3.373-1.656-4.86-2.664l5.184-10.296c0.191,0.241,0.815,0.696,1.872,1.368c1.055,0.673,2.364,1.344,3.924,2.016
		c1.56,0.673,3.3,1.272,5.22,1.8c1.919,0.529,3.863,0.792,5.832,0.792c4.176,0,6.264-1.271,6.264-3.816
		c0-0.959-0.313-1.751-0.936-2.376c-0.624-0.623-1.488-1.188-2.592-1.692c-1.104-0.504-2.412-0.972-3.924-1.404
		c-1.512-0.432-3.157-0.911-4.932-1.44c-2.353-0.72-4.392-1.5-6.12-2.34c-1.728-0.839-3.157-1.812-4.284-2.916
		c-1.128-1.104-1.969-2.376-2.52-3.816c-0.553-1.44-0.828-3.12-0.828-5.04c0-2.688,0.504-5.063,1.512-7.128
		c1.008-2.063,2.376-3.804,4.104-5.22c1.728-1.415,3.732-2.484,6.012-3.204c2.279-0.72,4.691-1.08,7.236-1.08
		c1.775,0,3.528,0.168,5.256,0.504c1.728,0.336,3.384,0.768,4.968,1.296c1.584,0.529,3.06,1.128,4.428,1.8
		c1.368,0.673,2.628,1.345,3.78,2.016L71.082,123.858z"/>
	<path fill="#FFFFFF" d="M87.425,134.01c0-3.071,0.576-6.131,1.728-9.18c1.152-3.048,2.832-5.771,5.04-8.172
		c2.208-2.399,4.896-4.343,8.064-5.832c3.168-1.487,6.768-2.232,10.8-2.232c4.799,0,8.964,1.033,12.492,3.096
		c3.528,2.064,6.156,4.752,7.884,8.064l-9.072,6.336c-0.576-1.343-1.308-2.459-2.196-3.348c-0.889-0.888-1.861-1.608-2.916-2.16
		c-1.057-0.551-2.136-0.936-3.24-1.152c-1.104-0.216-2.185-0.324-3.24-0.324c-2.257,0-4.225,0.457-5.904,1.368
		c-1.681,0.912-3.072,2.088-4.176,3.528c-1.105,1.44-1.92,3.072-2.448,4.896c-0.528,1.825-0.792,3.672-0.792,5.544
		c0,2.016,0.312,3.96,0.936,5.832c0.624,1.872,1.523,3.528,2.7,4.968c1.176,1.44,2.592,2.581,4.248,3.42
		c1.656,0.84,3.516,1.26,5.58,1.26c1.055,0,2.147-0.131,3.276-0.396c1.127-0.263,2.207-0.671,3.24-1.224
		c1.031-0.551,1.98-1.271,2.844-2.16c0.864-0.888,1.559-1.98,2.088-3.276l9.648,5.688c-0.768,1.872-1.908,3.553-3.42,5.04
		c-1.512,1.489-3.252,2.736-5.22,3.744c-1.969,1.008-4.057,1.776-6.264,2.304c-2.208,0.527-4.368,0.792-6.48,0.792
		c-3.697,0-7.092-0.756-10.188-2.268c-3.096-1.512-5.76-3.516-7.992-6.012c-2.232-2.495-3.96-5.328-5.184-8.496
		C88.038,140.49,87.425,137.275,87.425,134.01z"/>
	<path fill="#FFFFFF" d="M167.49,160.434c-3.792,0-7.249-0.744-10.368-2.232c-3.121-1.487-5.785-3.444-7.992-5.868
		c-2.208-2.423-3.924-5.195-5.148-8.316c-1.224-3.12-1.836-6.336-1.836-9.648c0-3.359,0.636-6.6,1.908-9.72
		c1.271-3.12,3.047-5.868,5.328-8.244c2.279-2.376,4.979-4.271,8.1-5.688c3.12-1.415,6.527-2.124,10.224-2.124
		c3.792,0,7.248,0.745,10.368,2.232c3.12,1.488,5.784,3.456,7.992,5.904c2.208,2.448,3.912,5.232,5.112,8.352
		c1.199,3.121,1.801,6.289,1.801,9.504c0,3.36-0.637,6.601-1.908,9.72c-1.272,3.121-3.037,5.868-5.292,8.244
		c-2.257,2.376-4.944,4.284-8.064,5.724C174.593,159.714,171.185,160.434,167.49,160.434z M154.169,134.514
		c0,1.969,0.288,3.876,0.864,5.724c0.576,1.849,1.428,3.492,2.556,4.932c1.127,1.44,2.531,2.592,4.212,3.456
		c1.68,0.864,3.6,1.296,5.76,1.296c2.256,0,4.223-0.456,5.904-1.368c1.68-0.911,3.071-2.099,4.176-3.564
		c1.104-1.463,1.932-3.12,2.484-4.968c0.551-1.847,0.828-3.731,0.828-5.652c0-1.968-0.288-3.876-0.864-5.724
		c-0.576-1.847-1.44-3.479-2.592-4.896c-1.152-1.416-2.556-2.543-4.212-3.384c-1.656-0.839-3.564-1.26-5.724-1.26
		c-2.257,0-4.212,0.444-5.868,1.332c-1.656,0.889-3.049,2.052-4.176,3.492c-1.128,1.44-1.969,3.084-2.52,4.932
		C154.445,130.71,154.169,132.595,154.169,134.514z"/>
</g>
<rect x="4.514" y="4.514" fill="none" stroke="#FFFFFF" stroke-width="9.0283" stroke-miterlimit="10" width="218" height="190.976"/>
</svg>
